<svg width="30" height="30" viewBox="0 0 30 30" fill="none" xmlns="http://www.w3.org/2000/svg">
<path d="M15 27.5C21.9036 27.5 27.5 21.9036 27.5 15C27.5 8.09644 21.9036 2.5 15 2.5C8.09644 2.5 2.5 8.09644 2.5 15C2.5 21.9036 8.09644 27.5 15 27.5Z" stroke="#C6C6C6" stroke-width="2" stroke-linecap="round" stroke-linejoin="round"/>
<path d="M11.3633 11.25C11.6572 10.4146 12.2372 9.71011 13.0007 9.2614C13.7642 8.81268 14.6619 8.64865 15.5348 8.79837C16.4076 8.94809 17.1993 9.40188 17.7696 10.0794C18.34 10.7569 18.6521 11.6144 18.6508 12.5C18.6508 15 14.9008 16.25 14.9008 16.25" stroke="#C6C6C6" stroke-width="2" stroke-linecap="round" stroke-linejoin="round"/>
<path d="M15 21.25H15.0125" stroke="#C6C6C6" stroke-width="2" stroke-linecap="round" stroke-linejoin="round"/>
</svg>
